<svg width="118" height="120" viewBox="0 0 118 120" fill="none" xmlns="http://www.w3.org/2000/svg">
<path d="M68.6881 36.6038C71.3641 33.2736 73.0847 28.6352 73.0847 23.5013C73.0847 13.3642 66.5869 5.18154 58.6065 5.18154C58.107 5.18154 57.5916 5.11811 57.104 5.18154C49.8173 6.12111 44.1244 13.9985 44.1244 23.5013C44.1244 28.7661 45.9401 33.4639 48.735 36.8179C33.5789 39.6485 32.4332 65.021 32.4332 82.8293H42.9429L45.7339 120H72.4385L74.9044 82.8293H84.8789C84.8789 64.9694 85.2437 39.1529 68.6881 36.6038ZM92.8157 0C101.236 5.45112 106.656 13.6377 106.656 22.863C106.656 32.0367 101.312 40.2749 92.9743 45.726C107.254 41.6069 117.114 32.901 117.114 22.863C117.11 12.7893 107.183 4.09924 92.8157 0ZM82.5518 39.9419C93.2162 36.8615 100.578 30.3637 100.578 22.867C100.578 15.3385 93.1686 8.85262 82.4408 5.79206C88.7363 9.86356 92.7721 15.9767 92.7721 22.867C92.7721 29.7175 88.7799 35.8743 82.5518 39.9419ZM79.9352 22.867C79.9352 27.8305 77.0452 32.2905 72.5296 35.24C80.2564 33.008 85.5925 28.2983 85.5925 22.867C85.5925 17.4119 80.2246 12.714 72.4424 10.4939C77.0015 13.4474 79.9352 17.8717 79.9352 22.867ZM10.4543 22.867C10.4543 13.6377 15.8737 5.45112 24.2942 0.00396464C9.92699 4.10717 0 12.7933 0 22.867C0 32.9049 9.85959 41.6109 24.1395 45.73C15.7983 40.2749 10.4543 32.0367 10.4543 22.867ZM16.5318 22.867C16.5318 30.3637 23.8938 36.8654 34.5581 39.9419C28.33 35.8704 24.3378 29.7175 24.3378 22.867C24.3378 15.9728 28.3775 9.85959 34.6691 5.79206C23.9413 8.85262 16.5238 15.3385 16.5318 22.867ZM44.5763 35.24C40.0608 32.2865 37.1707 27.8305 37.1707 22.867C37.1707 17.8717 40.1044 13.4435 44.6596 10.4939C36.8853 12.718 31.5095 17.4119 31.5095 22.867C31.5095 28.2983 36.8456 33.008 44.5723 35.24H44.5763Z" fill="#0CAF60"/>
</svg>
