<svg width="49" height="36" viewBox="0 0 49 36" fill="none" xmlns="http://www.w3.org/2000/svg">
<path d="M41.9546 3.9921C37.7401 0.600656 31.0731 0.0257652 30.7877 0.00508484C30.3451 -0.0321381 29.9233 0.216017 29.7413 0.625472C29.7248 0.650287 29.58 0.985296 29.4187 1.50642C32.2063 1.97791 35.6308 2.92504 38.7286 4.84823C39.2249 5.15429 39.378 5.80776 39.0719 6.30407C38.8692 6.63081 38.526 6.80865 38.1703 6.80865C37.98 6.80865 37.7856 6.75488 37.6119 6.64735C32.2849 3.34276 25.6343 3.17733 24.3522 3.17733C23.0701 3.17733 16.4154 3.34276 11.0925 6.64735C10.5962 6.95754 9.94272 6.80452 9.63666 6.30821C9.32647 5.80776 9.4795 5.15842 9.97581 4.84823C13.0736 2.92917 16.4981 1.97791 19.2857 1.51056C19.1244 0.985296 18.9797 0.654423 18.9673 0.625472C18.7811 0.216017 18.3634 -0.0404093 17.9167 0.00508484C17.6314 0.0257652 10.9643 0.600656 6.6919 4.03759C4.46264 6.10141 0 18.1617 0 28.5883C0 28.7744 0.0496309 28.9523 0.140621 29.1136C3.21774 34.5234 11.6178 35.9378 13.5327 35.9999C13.541 35.9999 13.5534 35.9999 13.5658 35.9999C13.9049 35.9999 14.2234 35.8386 14.4219 35.5656L16.3575 32.9021C11.1339 31.5538 8.4662 29.2625 8.31317 29.126C7.87477 28.7414 7.83341 28.0713 8.22218 27.6329C8.60682 27.1945 9.27684 27.1532 9.71524 27.5378C9.77728 27.5957 14.6907 31.7647 24.3522 31.7647C34.0302 31.7647 38.9437 27.5792 38.9933 27.5378C39.4317 27.1573 40.0976 27.1945 40.4864 27.6371C40.871 28.0755 40.8297 28.7414 40.3913 29.126C40.2382 29.2625 37.5706 31.5538 32.3469 32.9021L34.2825 35.5656C34.4811 35.8386 34.7995 35.9999 35.1387 35.9999C35.1511 35.9999 35.1635 35.9999 35.1717 35.9999C37.0867 35.9378 45.4867 34.5234 48.5638 29.1136C48.6548 28.9523 48.7044 28.7744 48.7044 28.5883C48.7044 18.1617 44.2418 6.10141 41.9546 3.9921ZM17.4701 24.3532C15.4228 24.3532 13.7643 22.4589 13.7643 20.118C13.7643 17.7771 15.4228 15.8828 17.4701 15.8828C19.5173 15.8828 21.1758 17.7771 21.1758 20.118C21.1758 22.4589 19.5173 24.3532 17.4701 24.3532ZM31.2344 24.3532C29.1871 24.3532 27.5286 22.4589 27.5286 20.118C27.5286 17.7771 29.1871 15.8828 31.2344 15.8828C33.2816 15.8828 34.9401 17.7771 34.9401 20.118C34.9401 22.4589 33.2816 24.3532 31.2344 24.3532Z" fill="white"/>
</svg>
