<svg width="20" height="20" viewBox="0 0 20 20" fill="none" xmlns="http://www.w3.org/2000/svg">
<path d="M7.07578 0.833252L3.75745 4.16075" stroke="#718096" stroke-width="1.5" stroke-miterlimit="10" stroke-linecap="round" stroke-linejoin="round"/>
<path d="M12.9242 0.833252L16.2425 4.16075" stroke="#718096" stroke-width="1.5" stroke-miterlimit="10" stroke-linecap="round" stroke-linejoin="round"/>
<path d="M0.833374 6.19588C0.833374 4.50005 1.74087 4.36255 2.86837 4.36255H17.1317C18.2592 4.36255 19.1667 4.50005 19.1667 6.19588C19.1667 8.16672 18.2592 8.02922 17.1317 8.02922H2.86837C1.74087 8.02922 0.833374 8.16672 0.833374 6.19588Z" stroke="#718096" stroke-width="1.5"/>
<path d="M7.94666 11.8333V15.0874" stroke="#718096" stroke-width="1.5" stroke-linecap="round"/>
<path d="M12.1633 11.8333V15.0874" stroke="#718096" stroke-width="1.5" stroke-linecap="round"/>
<path d="M2.20837 8.16675L3.50087 16.0867C3.79421 17.8651 4.50004 19.1667 7.12171 19.1667H12.6492C15.5 19.1667 15.9217 17.9201 16.2517 16.1967L17.7917 8.16675" stroke="#718096" stroke-width="1.5" stroke-linecap="round"/>
</svg>
