<svg width="21" height="22" viewBox="0 0 21 22" fill="none" xmlns="http://www.w3.org/2000/svg">
<path d="M10.5 0.9375C4.94316 0.9375 0.4375 5.44316 0.4375 11C0.4375 16.5568 4.94316 21.0625 10.5 21.0625C16.0568 21.0625 20.5625 16.5568 20.5625 11C20.5625 5.44316 16.0568 0.9375 10.5 0.9375ZM10.5 19.3555C5.88652 19.3555 2.14453 15.6135 2.14453 11C2.14453 6.38652 5.88652 2.64453 10.5 2.64453C15.1135 2.64453 18.8555 6.38652 18.8555 11C18.8555 15.6135 15.1135 19.3555 10.5 19.3555Z" fill="#718096"/>
<path d="M13.0066 6.61338C12.3328 6.02266 11.4434 5.69922 10.5 5.69922C9.55664 5.69922 8.66719 6.0249 7.99336 6.61338C7.29258 7.22656 6.90625 8.05088 6.90625 8.93359V9.1043C6.90625 9.20313 6.98711 9.28398 7.08594 9.28398H8.16406C8.26289 9.28398 8.34375 9.20313 8.34375 9.1043V8.93359C8.34375 7.94307 9.31182 7.13672 10.5 7.13672C11.6882 7.13672 12.6562 7.94307 12.6562 8.93359C12.6562 9.63213 12.1621 10.2723 11.3962 10.5665C10.92 10.7484 10.5157 11.0674 10.226 11.4852C9.93174 11.9119 9.779 12.424 9.779 12.9429V13.4258C9.779 13.5246 9.85986 13.6055 9.95869 13.6055H11.0368C11.1356 13.6055 11.2165 13.5246 11.2165 13.4258V12.9159C11.2177 12.6979 11.2845 12.4852 11.4083 12.3057C11.5321 12.1262 11.7071 11.9882 11.9105 11.9097C13.2357 11.3998 14.0915 10.2318 14.0915 8.93359C14.0937 8.05088 13.7074 7.22656 13.0066 6.61338ZM9.60156 15.9414C9.60156 16.1797 9.69622 16.4082 9.86471 16.5767C10.0332 16.7452 10.2617 16.8398 10.5 16.8398C10.7383 16.8398 10.9668 16.7452 11.1353 16.5767C11.3038 16.4082 11.3984 16.1797 11.3984 15.9414C11.3984 15.7031 11.3038 15.4746 11.1353 15.3061C10.9668 15.1376 10.7383 15.043 10.5 15.043C10.2617 15.043 10.0332 15.1376 9.86471 15.3061C9.69622 15.4746 9.60156 15.7031 9.60156 15.9414Z" fill="#718096"/>
</svg>
