<svg width="34" height="34" viewBox="0 0 34 34" fill="none" xmlns="http://www.w3.org/2000/svg">
<path fill-rule="evenodd" clip-rule="evenodd" d="M10.1975 0.599C11.957 0.518 12.518 0.5 17 0.5C21.482 0.5 22.043 0.5195 23.801 0.599C25.559 0.6785 26.759 0.959 27.809 1.3655C28.9085 1.781 29.906 2.4305 30.731 3.2705C31.571 4.094 32.219 5.09 32.633 6.191C33.041 7.241 33.32 8.441 33.401 10.196C33.482 11.9585 33.5 12.5195 33.5 17C33.5 21.482 33.4805 22.043 33.401 23.8025C33.3215 25.5575 33.041 26.7575 32.633 27.8075C32.219 28.9086 31.5699 29.9063 30.731 30.731C29.906 31.571 28.9085 32.219 27.809 32.633C26.759 33.041 25.559 33.32 23.804 33.401C22.043 33.482 21.482 33.5 17 33.5C12.518 33.5 11.957 33.4805 10.1975 33.401C8.4425 33.3215 7.2425 33.041 6.1925 32.633C5.09138 32.2189 4.09373 31.5699 3.269 30.731C2.42957 29.907 1.77997 28.9098 1.3655 27.809C0.959 26.759 0.68 25.559 0.599 23.804C0.518 22.0415 0.5 21.4805 0.5 17C0.5 12.518 0.5195 11.957 0.599 10.199C0.6785 8.441 0.959 7.241 1.3655 6.191C1.78058 5.09012 2.43068 4.09297 3.2705 3.269C4.09406 2.42975 5.09071 1.78017 6.191 1.3655C7.241 0.959 8.441 0.68 10.196 0.599H10.1975ZM23.6675 3.569C21.9275 3.4895 21.4055 3.473 17 3.473C12.5945 3.473 12.0725 3.4895 10.3325 3.569C8.723 3.6425 7.85 3.911 7.268 4.1375C6.4985 4.4375 5.948 4.793 5.3705 5.3705C4.82307 5.90308 4.40177 6.55142 4.1375 7.268C3.911 7.85 3.6425 8.723 3.569 10.3325C3.4895 12.0725 3.473 12.5945 3.473 17C3.473 21.4055 3.4895 21.9275 3.569 23.6675C3.6425 25.277 3.911 26.15 4.1375 26.732C4.4015 27.4475 4.823 28.097 5.3705 28.6295C5.903 29.177 6.5525 29.5985 7.268 29.8625C7.85 30.089 8.723 30.3575 10.3325 30.431C12.0725 30.5105 12.593 30.527 17 30.527C21.407 30.527 21.9275 30.5105 23.6675 30.431C25.277 30.3575 26.15 30.089 26.732 29.8625C27.5015 29.5625 28.052 29.207 28.6295 28.6295C29.177 28.097 29.5985 27.4475 29.8625 26.732C30.089 26.15 30.3575 25.277 30.431 23.6675C30.5105 21.9275 30.527 21.4055 30.527 17C30.527 12.5945 30.5105 12.0725 30.431 10.3325C30.3575 8.723 30.089 7.85 29.8625 7.268C29.5625 6.4985 29.207 5.948 28.6295 5.3705C28.0969 4.82311 27.4486 4.40182 26.732 4.1375C26.15 3.911 25.277 3.6425 23.6675 3.569ZM14.8925 22.0865C16.0695 22.5764 17.3801 22.6426 18.6004 22.2736C19.8207 21.9046 20.8751 21.1234 21.5834 20.0634C22.2917 19.0034 22.6101 17.7303 22.4841 16.4617C22.3581 15.193 21.7955 14.0075 20.8925 13.1075C20.3169 12.5322 19.6208 12.0917 18.8545 11.8177C18.0882 11.5437 17.2706 11.443 16.4607 11.5229C15.6508 11.6028 14.8687 11.8613 14.1707 12.2797C13.4727 12.6981 12.8761 13.2661 12.424 13.9428C11.9718 14.6194 11.6753 15.3879 11.5558 16.1929C11.4363 16.9979 11.4967 17.8194 11.7328 18.5983C11.9689 19.3771 12.3747 20.0939 12.9211 20.6971C13.4674 21.3003 14.1407 21.7748 14.8925 22.0865ZM11.003 11.003C11.7905 10.2155 12.7255 9.59075 13.7544 9.16454C14.7834 8.73833 15.8863 8.51896 17 8.51896C18.1137 8.51896 19.2166 8.73833 20.2456 9.16454C21.2745 9.59075 22.2095 10.2155 22.997 11.003C23.7845 11.7905 24.4092 12.7255 24.8355 13.7544C25.2617 14.7834 25.481 15.8863 25.481 17C25.481 18.1137 25.2617 19.2166 24.8355 20.2456C24.4092 21.2745 23.7845 22.2095 22.997 22.997C21.4065 24.5875 19.2493 25.481 17 25.481C14.7507 25.481 12.5935 24.5875 11.003 22.997C9.4125 21.4065 8.51896 19.2493 8.51896 17C8.51896 14.7507 9.4125 12.5935 11.003 11.003ZM27.362 9.782C27.5572 9.5979 27.7134 9.37652 27.8215 9.13096C27.9295 8.8854 27.9872 8.62065 27.9911 8.3524C27.995 8.08414 27.9451 7.81782 27.8442 7.56921C27.7434 7.32061 27.5936 7.09477 27.4039 6.90506C27.2142 6.71535 26.9884 6.56564 26.7398 6.46478C26.4912 6.36392 26.2249 6.31396 25.9566 6.31787C25.6883 6.32178 25.4236 6.37948 25.178 6.48754C24.9325 6.59561 24.7111 6.75184 24.527 6.947C24.169 7.32654 23.9729 7.83068 23.9806 8.3524C23.9882 8.87411 24.1988 9.37232 24.5677 9.74126C24.9367 10.1102 25.4349 10.3208 25.9566 10.3284C26.4783 10.3361 26.9825 10.14 27.362 9.782Z" fill="white"/>
</svg>
