<svg width="124" height="121" viewBox="0 0 124 121" fill="none" xmlns="http://www.w3.org/2000/svg">
<path d="M106.043 22.2001C167.696 -26.7121 50.588 19.2057 15.1272 28.3756C14.3864 35.6336 15.6018 43.0556 18.1144 50.5868C34.4229 32.148 152.489 -13.5596 71.874 47.6835L106.043 22.2001ZM9.81512 29.0549L1.77526 31.0931C2.97697 47.7156 7.8521 59.2958 14.6493 68.2608C11.1261 70.4628 5.98125 72.4497 0 73.9758C1.20513 75.3823 3.03159 77.4205 6.50017 77.9189C11.7918 76.9971 15.0009 74.7268 17.9472 72.2551C34.1874 90.3969 58.4742 97.5969 71.874 120.023L82.3992 119.996C57.8153 74.6176 13.0857 93.6777 9.81171 29.0549H9.81512Z" fill="#0CAF60"/>
</svg>
