<svg width="18" height="18" viewBox="0 0 18 18" fill="none" xmlns="http://www.w3.org/2000/svg">
<path d="M15 1H3C1.89543 1 1 1.89543 1 3V5C1 6.10457 1.89543 7 3 7H15C16.1046 7 17 6.10457 17 5V3C17 1.89543 16.1046 1 15 1Z" stroke="#0CAF60" stroke-width="1.5" stroke-linecap="round" stroke-linejoin="round"/>
<path d="M15 11H3C1.89543 11 1 11.8954 1 13V15C1 16.1046 1.89543 17 3 17H15C16.1046 17 17 16.1046 17 15V13C17 11.8954 16.1046 11 15 11Z" stroke="#0CAF60" stroke-width="1.5" stroke-linecap="round" stroke-linejoin="round"/>
</svg>
