<svg width="45" height="36" viewBox="0 0 45 36" fill="none" xmlns="http://www.w3.org/2000/svg">
<path d="M44.301 4.26113C42.6704 4.98525 40.9189 5.47255 39.0805 5.69234C40.9581 4.56782 42.3978 2.78733 43.076 0.664368C41.321 1.7054 39.3753 2.4619 37.3034 2.87081C35.6456 1.10395 33.2841 -0.00012207 30.6705 -0.00012207C25.651 -0.00012207 21.5823 4.0703 21.5823 9.08805C21.5823 9.80025 21.6641 10.4954 21.8174 11.1582C14.2644 10.7799 7.56837 7.16103 3.08391 1.6611C2.30356 3.00371 1.85546 4.56441 1.85546 6.23245C1.85546 9.38451 3.45875 12.1669 5.89692 13.7957C4.40778 13.748 3.00554 13.3391 1.78049 12.6593C1.78049 12.6984 1.78049 12.7342 1.78049 12.7734C1.78049 17.1778 4.91211 20.8512 9.07113 21.6844C8.30953 21.8923 7.50532 22.003 6.67556 22.003C6.09115 22.003 5.52037 21.9451 4.96663 21.8411C6.12353 25.4515 9.48005 28.0805 13.4568 28.1538C10.3473 30.5919 6.42851 32.0453 2.16896 32.0453C1.43632 32.0453 0.712196 32.0027 0 31.9175C4.02272 34.4954 8.79852 35.9999 13.9321 35.9999C30.65 35.9999 39.7893 22.1512 39.7893 10.141C39.7893 9.74743 39.7808 9.35555 39.7637 8.96537C41.5408 7.6824 43.0828 6.08251 44.301 4.26113Z" fill="white"/>
</svg>
