<svg width="50" height="57" viewBox="0 0 50 57" fill="none" xmlns="http://www.w3.org/2000/svg">
<path d="M21.9079 1.74141C23.7678 0.664323 26.0618 0.664322 27.9216 1.74141L46.0966 12.2667C47.9491 13.3396 49.0897 15.3182 49.0897 17.4589V38.5413C49.0897 40.682 47.9491 42.6606 46.0966 43.7335L27.9216 54.2588C26.0618 55.3359 23.7678 55.3359 21.9079 54.2588L3.73301 43.7335C1.88047 42.6606 0.739868 40.682 0.739868 38.5413V17.4589C0.739868 15.3182 1.88047 13.3396 3.73301 12.2667L21.9079 1.74141Z" fill="#0CAF60"/>
<path d="M14.4815 28L6.45593 0.727295H11.9424L17.2869 20.7557H17.5532L22.9155 0.727295H28.402L33.7287 20.6669H33.995L39.3039 0.727295H44.7905L36.7826 28H31.3672L25.8274 8.30897H25.419L19.8792 28H14.4815Z" fill="white"/>
<path d="M38.6015 29L46.0234 56.2727L38.3707 56.2727L34.1448 37.9488L33.8962 37.9488L29.4928 56.2727L21.9822 56.2727L17.5078 38.0554L17.2769 38.0554L13.1221 56.2727L5.48716 56.2727L12.8913 29L20.8991 29L25.5866 46.152L25.9239 46.152L30.6114 29L38.6015 29Z" fill="white"/>
</svg>
